<svg width="544" height="639" viewBox="0 0 544 639" fill="none" xmlns="http://www.w3.org/2000/svg">
<path opacity="0.7" d="M396 202.93C367.979 217.891 369.963 260.516 346 280.717C316.412 305.653 325.962 415.529 287 423.406C254.947 429.891 192.5 454.905 111 454.905C50.6947 474.675 1.12829 395.238 0.0238946 454.905C-1.06766 514.573 35.339 572.358 88.7739 605.098C106.919 616.212 126.901 624.724 147.795 630.203C187.104 640.525 228.763 640.069 269.382 636.125C339.524 629.303 413.056 592.127 457.271 539.689C476.996 516.299 493.639 490.679 506.892 463.621C528.672 419.191 541.347 370.818 543.517 321.976C545.379 280.004 543.478 233.5 507.855 202.93C472.309 172.431 437.8 180.595 396 202.93Z" fill="#A6B3FE"/>
<g clip-path="url(#clip0)">
<path d="M307.192 405.33H290.786L282.155 405.349C281.269 409.62 267.78 412.215 262.915 412.814L233.433 418.162C232.67 419.794 232.237 421.598 232.237 423.51C232.237 430.598 239.761 430.994 246.948 430.994H272.218H281.431L287.913 423.918V430.994H307.192C314.387 430.994 315.37 431.491 315.37 424.409C315.363 417.314 314.38 405.33 307.192 405.33Z" fill="#24253D"/>
<path d="M316.418 423.918H287.913V430.994H316.418V423.918Z" fill="black"/>
<path d="M233.006 426.544L252.784 416.842L259.616 426.544H281.58V430.994H233.006V426.544Z" fill="black"/>
<path d="M259.363 405.33H242.957L234.326 405.349C233.44 409.62 219.951 412.215 215.086 412.814L185.604 418.162C184.841 419.794 184.407 421.598 184.407 423.51C184.407 430.598 191.931 430.994 199.119 430.994H224.389H233.602L240.084 423.918V430.994H259.363C266.557 430.994 267.541 431.491 267.541 424.409C267.541 417.314 266.557 405.33 259.363 405.33Z" fill="#333656"/>
<path d="M268.311 423.918H239.806V430.994H268.311V423.918Z" fill="black"/>
<path d="M233.75 426.544H185.184V430.994H233.75V426.544Z" fill="black"/>
<path d="M233.757 426.544L240.091 423.918L233.757 430.994V426.544Z" fill="black"/>
<path d="M281.58 426.544L287.913 423.918L281.58 430.994V426.544Z" fill="black"/>
<path d="M234.326 405.349C234.326 407.204 235.277 408.69 237.16 408.69H257.901C260.942 408.69 262.178 406 262.178 406L271.002 389.356L245.383 388.234L234.326 405.349Z" fill="#24253D"/>
<path d="M431.938 130.429C430.165 138.53 426.18 153.676 403.976 162.836C381.773 171.996 389.556 159.655 391.264 157.788C392.972 155.92 411.19 135.165 412.516 133.852C413.842 132.545 419.16 129.549 419.16 129.549L431.304 130.486L431.938 130.429Z" fill="#8C382D"/>
<path d="M497.209 397.695H487.343V493.86H497.209V397.695Z" fill="#94473A"/>
<path d="M386.185 397.695H376.319V493.86H386.185V397.695Z" fill="#94473A"/>
<path d="M495.824 297.897V275.804C495.824 250.752 475.219 230.45 449.794 230.45C424.368 230.45 403.763 250.759 403.763 275.804V297.897H495.824Z" fill="#DD9966"/>
<path d="M403.763 274.924V252.83C403.763 227.779 424.368 207.476 449.794 207.476C475.219 207.476 495.824 227.779 495.824 252.83V274.924V375.863" stroke="#DD9966" stroke-width="12.3204" stroke-miterlimit="10"/>
<path d="M258.108 265.585L206.423 269.652C206.423 269.652 175.149 258.746 167.722 255.552C167.806 251.275 171.184 247.673 175.602 247.342L256.206 241.222C260.909 240.872 265.011 244.333 265.373 248.967L265.969 256.547C266.324 261.181 262.805 265.228 258.108 265.585Z" fill="#FFB287"/>
<path d="M275.104 212.384C276.119 216.923 273.208 221.411 268.602 222.411L189.648 239.552C185.041 240.553 180.487 237.685 179.471 233.146L177.808 225.72C176.793 221.181 179.704 216.694 184.31 215.693L263.264 198.552C267.871 197.551 272.425 200.42 273.441 204.958L275.104 212.384Z" fill="#F48967"/>
<path d="M197.605 165.896C199.164 165.08 200.219 163.461 200.18 161.606C200.122 158.98 197.909 156.902 195.25 156.959C197.916 156.908 200.025 154.728 199.966 152.108C199.915 150.272 198.815 148.717 197.249 147.965C198.776 147.142 199.818 145.542 199.779 143.713C199.714 141.087 197.508 139.015 194.843 139.072L183.547 139.321V175.196L195.658 174.928C198.317 174.865 200.426 172.697 200.368 170.071C200.335 168.21 199.197 166.635 197.605 165.896Z" fill="#F38966"/>
<path d="M137.341 171.257L114.899 171.754C107.51 171.913 101.384 166.144 101.222 158.871C101.06 151.592 106.915 145.561 114.31 145.396L136.746 144.899C136.682 142.387 152.208 130.186 152.208 130.186C153.075 129.683 154.046 129.53 154.971 129.651L160.722 139.754L185.805 139.066C188.47 139.009 190.67 141.08 190.741 143.707C190.78 145.536 189.738 147.142 188.211 147.958C189.777 148.71 190.877 150.266 190.929 152.102C190.987 154.722 188.878 156.902 186.212 156.953C188.878 156.902 191.084 158.98 191.142 161.6C191.181 163.454 190.126 165.067 188.567 165.889C190.159 166.629 191.297 168.203 191.33 170.052C191.388 172.678 189.279 174.852 186.62 174.909L144.749 175.834C142.084 175.904 137.393 173.877 137.341 171.257Z" fill="#FFB287"/>
<path d="M206.695 116.348L192.345 139.06L160.716 139.742L156.575 134.903H156.569L143.035 119.101C143.035 119.101 162.469 119.541 181.03 118.783C190.825 118.387 200.374 117.654 206.695 116.348Z" fill="#648456"/>
<path d="M206.695 116.348L192.345 139.06L160.716 139.742L156.569 134.903H156.575C160.082 136.083 168.557 136.644 176.806 136.586C177.446 136.58 179.575 125.144 181.037 118.783C190.825 118.387 200.374 117.654 206.695 116.348Z" fill="#648456"/>
<path d="M169.327 139.563L161.059 123.525L175.007 139.436L169.327 139.563Z" fill="#648456"/>
<path d="M163.142 137.332L159.157 130.537L166.183 137.332H163.142Z" fill="#648456"/>
<path d="M205.479 114.333V114.945C205.479 117.916 203.033 120.325 200.025 120.325H148.314C145.299 120.325 142.854 117.916 142.854 114.945V114.333C142.854 112.465 143.824 110.815 145.299 109.852C146.166 109.291 147.201 108.96 148.314 108.96H200.025C200.963 108.96 201.849 109.195 202.625 109.616C204.327 110.528 205.479 112.3 205.479 114.333Z" fill="#9FBC6F"/>
<path d="M205.479 114.333V114.945C205.479 117.916 203.033 120.325 200.025 120.325H148.314C145.299 120.325 142.854 117.916 142.854 114.945V114.333C142.854 112.465 143.824 110.815 145.299 109.852L146.269 110.362C146.269 110.362 157.442 116.87 172.633 116.87C185.132 116.87 198.349 111.516 202.632 109.616C204.327 110.528 205.479 112.3 205.479 114.333Z" fill="#648456"/>
<path d="M200.025 110.362C202.25 110.362 204.062 112.147 204.062 114.34V114.952C204.062 117.144 202.25 118.929 200.025 118.929H148.314C146.088 118.929 144.277 117.144 144.277 114.952V114.34C144.277 112.147 146.088 110.362 148.314 110.362H200.025ZM200.025 107.557H148.314C144.516 107.557 141.43 110.591 141.43 114.34V114.952C141.43 118.693 144.51 121.734 148.314 121.734H200.025C203.822 121.734 206.908 118.7 206.908 114.952V114.34C206.908 110.591 203.829 107.557 200.025 107.557Z" fill="#B0CE78"/>
<path d="M515 383.308V390.256C515 394.361 511.616 397.695 507.444 397.695H369.319C365.146 397.695 361.763 394.361 361.763 390.256V383.308C361.763 379.197 365.146 375.863 369.319 375.863H507.444C511.616 375.863 515 379.197 515 383.308Z" fill="#DD9966"/>
<path d="M515 393.023V399.792C515 403.898 511.616 407.231 507.444 407.231H369.319C365.146 407.231 361.763 403.898 361.763 399.792V393.023H515Z" fill="#94473A"/>
<path d="M237.606 392.239H130.012V415.212H237.606V392.239Z" fill="#98B6D9"/>
<path d="M174.373 409.864C177.814 409.864 180.603 407.116 180.603 403.725C180.603 400.335 177.814 397.587 174.373 397.587C170.932 397.587 168.143 400.335 168.143 403.725C168.143 407.116 170.932 409.864 174.373 409.864Z" fill="#86A0BF"/>
<path d="M202.82 410.399C206.26 410.399 209.05 407.651 209.05 404.261C209.05 400.871 206.26 398.122 202.82 398.122C199.379 398.122 196.589 400.871 196.589 404.261C196.589 407.651 199.379 410.399 202.82 410.399Z" fill="#86A0BF"/>
<path d="M191.925 330.496H181.496V493.86H191.925V330.496Z" fill="#94473A"/>
<path d="M56.0066 335.647H45.5777V493.853H56.0066V335.647Z" fill="#94473A"/>
<path d="M309.379 342.506L312.834 363.069L322.066 418.03L331.22 469.688H294.467L284.141 411.075L269.216 322.197C268.233 316.339 270.271 310.378 274.651 306.299C279.037 302.219 285.183 300.555 291.064 301.849L359.227 316.893L413.545 328.883L457.454 338.579C459.479 339.025 461.348 339.79 463.017 340.81C469.409 344.698 472.909 352.284 471.182 359.908C468.989 369.533 459.297 375.595 449.528 373.434L407.224 364.102L401.984 362.942L324.084 345.756L309.379 342.506Z" fill="#1E2B3F"/>
<path d="M487.188 358.626C487.207 368.494 479.101 376.507 469.086 376.519L445.996 376.558L347.148 376.73L322.467 418.03L289.369 474.545L254.42 461.828L284.549 411.069L313.235 363.063L321.147 349.817C322.066 348.287 323.192 346.917 324.485 345.744C327.778 342.754 332.132 341.027 336.739 341.02L463.418 340.804L469.021 340.791H469.053C471.363 340.791 473.569 341.218 475.601 341.989C482.368 344.59 487.175 351.054 487.188 358.626Z" fill="#24344C"/>
<path d="M284.284 472.697L317.647 415.474L342.335 374.174L343.816 371.688L346.741 371.681L468.678 371.471C475.846 371.458 486.191 365.702 486.178 358.633C486.178 358.04 486.133 357.46 486.055 356.886C486.314 356.893 486.469 356.893 486.553 356.893C487.006 356.918 485.35 356.918 486.553 356.893C486.592 356.893 486.638 356.893 486.689 356.893C486.748 357.46 486.78 358.04 486.78 358.62C486.799 368.488 478.693 376.5 468.678 376.513L347.155 376.723H346.747L290.178 474.979L284.284 472.697Z" fill="#172335"/>
<path d="M436.13 203.199L413.545 328.89L359.227 316.899C355.3 294.697 346.883 252.473 334.449 217.822C313.157 222.762 284.562 229.685 250.157 238.322L241.093 203.199C255.333 199.636 260.489 199.323 276.747 195.32C303.472 188.748 324.893 183.604 340.407 180.028C349.736 177.88 357.072 176.267 362.19 175.241C362.727 175.132 363.238 175.03 363.73 174.935C366.026 174.489 367.864 174.163 369.332 173.953C371.435 173.647 376.002 172.991 380.835 174.769C396.957 175.164 410.498 181.928 420.144 188.748C430.295 195.939 436.13 203.199 436.13 203.199Z" fill="#305868"/>
<path d="M413.545 328.883L407.218 364.102L406.409 368.596C406.409 368.596 404.792 366.34 401.977 362.942C394.415 353.801 378.241 336.399 361.763 332.243C361.763 332.243 360.902 326.404 359.227 316.893L413.545 328.883Z" fill="#1E2B3F"/>
<path d="M400.716 344.08C400.011 344.105 399.318 344.118 398.626 344.099C398.62 344.099 398.62 344.099 398.613 344.099C383.164 343.742 372.871 332.198 372.871 332.198L367.01 296.425L353.935 216.694L374.741 207.476C374.741 207.476 375.362 209.459 376.423 212.945C376.507 213.226 376.591 213.513 376.682 213.812C384.846 240.63 415.162 343.468 400.716 344.08Z" fill="#D3E3F4"/>
<path d="M370.51 221.149C370.51 224.356 367.877 226.95 364.622 226.95C358.049 226.95 356.005 218.982 356.005 215.782L358.735 214.169C358.735 210.963 361.368 208.369 364.622 208.369C367.87 208.369 370.51 210.963 370.51 214.169V221.149Z" fill="#E54539"/>
<path d="M374.378 340.804H362.287L361.601 318.799L358.573 222.335L367.585 221.028L373.68 328.475L374.378 340.804Z" fill="#E54539"/>
<path d="M488.624 336.813L405.859 363.802C405.859 363.802 388.792 294.71 374.016 263.036C368.329 250.841 367.495 243.001 362.287 228.531C394.835 225.815 418.313 216.547 436.13 203.199C458.133 224.05 490.642 306.796 488.624 336.813Z" fill="#24344C"/>
<path d="M388.605 216.483C384.128 223.24 377.762 227.689 371.609 229.015L365.276 210.294L363.257 209.714L354.258 218.587L354.252 218.593C352.68 212.365 354.181 204.436 358.871 197.354C366.33 186.103 379.03 181.252 387.24 186.536C395.45 191.821 396.058 205.226 388.605 216.483Z" fill="white"/>
<path d="M420.144 188.755C418.488 193.746 415.913 197.755 413.545 195.562C408.693 191.075 393.101 194.848 382.265 201.478L373.706 198.354L361.303 179.486L363.73 174.948C366.026 174.501 367.864 174.176 369.332 173.966C371.435 173.66 376.002 173.003 380.835 174.782C396.964 175.171 410.498 181.928 420.144 188.755Z" fill="#24344C"/>
<path d="M384.102 198.59C383.255 200.796 381.579 202.453 379.56 203.358L379.205 203.518L376.546 204.703C373.926 205.87 370.853 206.048 367.954 204.971C365.049 203.894 362.863 201.758 361.679 199.177L356.102 187.002L355.998 186.785L377.147 177.363L383.882 192.057C384.807 194.045 384.95 196.378 384.102 198.59Z" fill="#D36E53"/>
<path d="M403.64 241.822C402.495 232.024 393.515 224.993 383.559 226.115L237.606 242.281L240.44 276.945L387.699 261.601C397.649 260.48 404.785 251.625 403.64 241.822Z" fill="#24344C"/>
<path d="M366 184.171L322.629 122.894L317.692 128.057C303.699 142.706 303.718 165.354 317.259 179.951C317.912 180.665 318.611 181.354 319.329 182.023L321.212 183.783C321.555 184.101 321.898 184.414 322.253 184.707C335.283 195.97 353.475 196.308 367.657 187.645C367.133 186.842 367.1 186.868 366.486 186.122C365.981 185.497 365.865 184.802 366 184.171Z" fill="#FFB287"/>
<path d="M412.212 144.376L378.558 179.563C364.202 194.581 340.433 195.594 324.828 182.106C324.472 181.806 324.13 181.5 323.787 181.182L321.904 179.422C321.179 178.753 320.487 178.065 319.834 177.351C306.287 162.753 306.274 140.105 320.267 125.457L326.944 118.47L331.854 113.326L353.909 90.257C365.088 78.5791 381.98 75.3664 396.278 80.8994C400.755 82.6332 404.973 85.2085 408.68 88.6507L410.575 90.41C412.581 92.2713 414.347 94.2984 415.861 96.4402C426.089 110.942 424.996 131.002 412.212 144.376Z" fill="#FFB287"/>
<path d="M411.863 146.256L377.102 182.597C362.274 198.106 337.729 199.158 321.606 185.223C321.011 184.375 320.442 183.508 319.924 182.629C333.368 184.879 347.659 180.672 357.713 170.154L394.343 131.856C405.542 120.14 408.499 103.707 403.427 89.5176C403.575 89.5686 403.718 89.6259 403.866 89.6833C408.078 91.3152 412.07 93.6673 415.634 96.7653C426.193 111.726 425.067 132.449 411.863 146.256Z" fill="#F38966"/>
<path d="M398.62 124.207C398.6 124.137 398.587 124.067 398.561 123.997C398.096 122.072 397.546 120.281 396.944 118.617C395.45 114.499 393.58 111.127 391.477 108.335C390.656 107.238 389.795 106.238 388.915 105.313C388.799 105.192 388.676 105.065 388.553 104.944C384.445 100.762 379.793 98.225 375.485 96.3382C372.987 95.2418 370.6 94.3749 368.511 93.5271C367.314 93.0426 366.207 92.5709 365.237 92.061C358.483 88.5742 358.418 85.5017 357.493 86.9487C353.294 79.548 360.32 63.3952 360.488 63C360.495 63 360.495 63 360.495 63C360.495 63 360.495 63 360.501 63.0064C360.508 63.0064 360.501 63.0127 360.501 63.0127C360.508 63.0191 360.508 63.0191 360.508 63.0191C360.676 63.1849 362.772 65.3458 365.91 68.8007C371.157 74.5759 379.315 83.9846 386.198 93.7948C394.072 105.014 400.295 116.755 398.62 124.207Z" fill="#AA4730"/>
<path d="M408.654 181.889C408.654 181.889 425.966 210.644 371.7 227.53C387.654 245.162 437.411 204.467 437.411 204.467C437.411 204.467 424.375 189.067 408.654 181.889Z" fill="#24344C"/>
<path d="M480.272 317.709L486.114 353.865L468.652 360.908L455.403 337.91L480.272 317.709Z" fill="#24344C"/>
<path d="M118.276 145.026H94.332V184.184H118.276V145.026Z" fill="#3B5263"/>
<path d="M126.563 145.026H118.276V172.156H126.563V145.026Z" fill="#D4FFFF"/>
<path d="M131.597 171.384L128.058 145.083H126.563V145.122V171.493L131.597 171.384Z" fill="#F38966"/>
<path d="M94.332 158.616V184.184H118.276V172.162V158.623L94.332 158.616Z" fill="#D3D2D1"/>
<path d="M92.3394 245.716L74.5418 243.543L109.315 71.9688L114.122 72.5297L92.3394 245.716Z" fill="white"/>
<path d="M91.5208 69.7928L69.7355 242.979L87.5327 245.152L109.318 71.9662L91.5208 69.7928Z" fill="#423B3C"/>
<path d="M216.334 315.758H21V339.854H216.334V315.758Z" fill="#94473A"/>
<path d="M223.516 240.317C222.894 241.777 221.963 243.052 221.031 244.276C217.35 249.178 212.174 252.575 206.455 254.162C204.049 254.832 201.545 255.176 199.022 255.176L170.925 254.277C145.118 254.277 124.241 246.8 120.443 230.717C118.457 222.303 129.106 224.12 133.531 217.337L146.968 178.804V179.014L150.598 175.84L188.289 175.024L193.161 174.916C193.161 174.916 233.931 215.757 223.516 240.317Z" fill="#648456"/>
<path d="M119.686 228.474C118.793 205.118 147.013 178.734 147.013 178.734L150.455 178.804C172.976 178.804 185.164 183.782 193.704 194.064C234.688 243.428 120.579 251.823 119.686 228.474Z" fill="#9FBC6F"/>
<path d="M188.936 219.989C188.936 218.383 188.548 216.974 187.765 215.776C186.982 214.577 185.766 213.526 184.116 212.62C182.693 211.843 180.778 211.116 178.391 210.447V198.883C179.529 199.183 180.5 199.719 181.295 200.496C182.428 201.605 183.068 203.052 183.204 204.837C183.236 205.271 183.683 205.609 184.233 205.609H187.506C188.088 205.609 188.561 205.226 188.535 204.767C188.386 202.052 187.487 199.884 185.85 198.259C184.064 196.487 181.58 195.422 178.391 195.059V192.165C178.391 191.731 177.944 191.381 177.394 191.381H174.457C173.907 191.381 173.461 191.731 173.461 192.165V195.078C170.478 195.429 168.117 196.359 166.37 197.87C164.526 199.464 163.608 201.503 163.608 203.996C163.608 206.437 164.546 208.458 166.428 210.039C167.994 211.358 170.343 212.474 173.461 213.379V225.242C171.818 225.019 170.478 224.496 169.45 223.667C168.214 222.673 167.522 221.302 167.373 219.562C167.334 219.135 166.894 218.791 166.344 218.791H163.045C162.456 218.791 161.984 219.18 162.016 219.639C162.191 222.246 163.2 224.343 165.044 225.93C167.075 227.683 169.883 228.684 173.467 228.945V232.043C173.467 232.477 173.914 232.827 174.464 232.827H177.401C177.951 232.827 178.397 232.477 178.397 232.043V228.888C181.625 228.544 184.161 227.638 186.005 226.172C187.959 224.617 188.936 222.552 188.936 219.989ZM170.886 207.629C169.605 206.711 168.958 205.475 168.958 203.926C168.958 202.256 169.566 200.949 170.782 200.012C171.488 199.47 172.387 199.087 173.461 198.858V208.955C172.393 208.534 171.533 208.095 170.886 207.629ZM181.412 223.948C180.584 224.496 179.575 224.878 178.391 225.114V214.82C179.827 215.342 180.94 215.903 181.716 216.502C182.958 217.459 183.586 218.638 183.586 220.034C183.579 221.691 182.855 222.992 181.412 223.948Z" fill="white"/>
<path d="M239.023 327.812V309.843C239.023 305.196 235.199 301.429 230.483 301.429H21V327.819H239.023V327.812Z" fill="#DD9966"/>
<path d="M73.9078 183.84L62.5343 262.538C61.3181 270.959 63.6795 279.832 69.7802 286.755C75.881 293.684 84.4596 297.234 93.0899 297.234H148.683" stroke="#4F4648" stroke-width="14.9604" stroke-miterlimit="10"/>
<path d="M227.287 243.422L237.606 242.287L239.625 266.988L228.808 267.925L227.287 243.422Z" fill="white"/>
<path d="M231.085 205.538L241.093 203.199L248.773 232.955L237.108 234.905L231.085 205.538Z" fill="white"/>
<path d="M336.312 130.99C334.403 133.138 330.89 133.182 328.458 131.092L324.511 127.694C323.192 126.553 322.46 125.017 322.383 123.512L327.293 118.368H327.364C328.762 118.368 330.217 118.885 331.408 119.911L335.361 123.308C337.793 125.399 338.22 128.841 336.312 130.99Z" fill="#F38966"/>
<path d="M340.006 128.204C337.819 130.664 333.802 130.715 331.02 128.319L326.497 124.424C323.716 122.027 323.23 118.094 325.417 115.634C327.597 113.173 331.621 113.122 334.403 115.519L338.925 119.414C341.707 121.804 342.192 125.743 340.006 128.204Z" fill="#FFB287"/>
<path d="M341.772 106.04C338.854 109.865 344.295 114.658 347.562 112.115" stroke="#994436" stroke-width="3.5201" stroke-miterlimit="10" stroke-linecap="round"/>
<path d="M357.014 118.98C354.096 122.805 359.537 127.598 362.804 125.055" stroke="#994436" stroke-width="3.5201" stroke-miterlimit="10" stroke-linecap="round"/>
<path d="M241.093 203.199L242.853 220.665L234.598 222.89L237.108 234.905L248.773 232.955L241.093 203.199Z" fill="#BACDE3"/>
<path d="M237.606 242.287L236.021 256.464L228.193 258.089L228.808 267.925L239.625 266.988L237.606 242.287Z" fill="#BACDE3"/>
<path d="M486.78 358.626C486.799 368.494 478.693 376.507 468.678 376.519L445.595 376.558L406.415 368.59L405.866 363.796L483.765 339.306C485.577 347.395 486.767 351.054 486.78 358.626Z" fill="#172335"/>
<path d="M148.689 403.725H128.09C125.205 403.725 122.313 404.809 120.113 406.983C117.907 409.156 116.807 411.999 116.807 414.842V421.663C116.807 424.876 115.565 428.082 113.081 430.53C110.596 432.978 107.336 434.202 104.082 434.202H91.5696C88.723 434.202 85.8699 433.131 83.6962 430.989C81.5224 428.847 80.4355 426.036 80.4355 423.231V301.422" stroke="#383334" stroke-width="6.1602" stroke-miterlimit="10" stroke-linecap="round"/>
<path d="M107.601 301.422L107.459 378.126C107.452 381.064 106.314 383.92 104.036 386.158C101.759 388.395 98.7831 389.517 95.8006 389.517H80.235C77.2266 389.517 72.0316 388.382 69.7349 386.119C67.4382 383.856 66.2931 380.943 66.2996 377.973L66.4355 224.7C66.4355 223.661 66.843 222.628 67.6453 221.831C68.454 221.035 69.5085 220.639 70.5695 220.639H73.759" stroke="#383334" stroke-width="6.1602" stroke-miterlimit="10" stroke-linecap="round"/>
<path d="M159.92 404.261C159.92 407.888 156.938 410.833 153.25 410.833H145.92C142.239 410.833 139.25 407.894 139.25 404.261C139.25 400.634 142.232 397.695 145.92 397.695H153.25C156.931 397.695 159.92 400.634 159.92 404.261Z" fill="#423B3C"/>
<path d="M226.459 409.864C229.9 409.864 232.689 407.116 232.689 403.725C232.689 400.335 229.9 397.587 226.459 397.587C223.018 397.587 220.229 400.335 220.229 403.725C220.229 407.116 223.018 409.864 226.459 409.864Z" fill="#86A0BF"/>
<path d="M217.971 252.39C217.24 254.488 214.982 255.622 212.931 254.927L191.53 247.539C189.473 246.845 188.399 244.588 189.124 242.491C189.848 240.394 192.106 239.259 194.163 239.954L215.564 247.342C217.622 248.037 215.946 249.203 215.222 251.3L217.971 252.39Z" fill="#FFB287"/>
<path d="M207.911 244.894C207.911 244.894 214.348 241.528 222.15 243.81C223.878 250.395 222.15 253.391 222.15 253.391L207.911 248.349V244.894Z" fill="#FFB287"/>
<path d="M202.173 255.176C202.173 255.176 203.939 255.654 203.564 251.906C208.953 248.719 210.667 254.303 210.667 254.303L202.173 255.176Z" fill="#FFB287"/>
<path d="M360.508 63.0191C360.605 63.1402 361.368 64.1155 362.61 65.7537C361.899 64.9442 361.2 64.0454 360.508 63.0191Z" fill="#AA4730"/>
<path d="M405.684 152.726C403.433 145.81 393.302 150.138 393.302 150.138C393.302 150.138 391.594 152.095 387.421 147.608C388.249 145.81 389.084 144.274 389.912 142.942C393.69 136.803 397.196 134.833 398.62 130.531C399.176 129.504 399.293 128.076 399.053 126.336C398.963 125.667 398.814 124.959 398.62 124.207C398.6 124.137 398.587 124.067 398.561 123.997C398.18 122.556 397.63 120.969 396.925 119.267C395.573 115.971 393.683 112.255 391.477 108.335C389.181 104.249 386.535 99.9461 383.772 95.688C382.491 93.7056 381.184 91.7359 379.871 89.7917C372.929 79.5097 365.981 70.1967 362.604 65.7474C363.678 66.9776 364.778 67.972 365.903 68.7943C375.019 75.3919 386.243 70.286 407.276 82.5185C408.622 83.3025 409.87 84.1312 411.022 84.9917C417.608 89.9383 420.991 96.2426 421.237 104.16C448.002 122.894 421.528 157.118 405.684 152.726Z" fill="#AA4730"/>
<path d="M362.889 109.457C370.29 106.652 376.779 112.606 372.567 120.395" stroke="#AA4730" stroke-width="3.5201" stroke-miterlimit="10" stroke-linecap="round"/>
<path d="M354.989 102.534C355.766 95.7071 348.656 94.3876 346.094 96.1725" stroke="#AA4730" stroke-width="3.5201" stroke-miterlimit="10" stroke-linecap="round"/>
<path d="M318.022 133.903C316.483 140.118 326.18 150.113 339.631 151.349" stroke="#C13B34" stroke-width="4.4001" stroke-miterlimit="10" stroke-linecap="round"/>
<path d="M322.409 220.646C322.409 220.646 334.487 218.606 337.89 227.849C342.814 212.034 334.131 207.483 334.131 207.483L322.409 220.646Z" fill="#24344C"/>
<path d="M342.904 375.245L337.547 364.956L342.108 362.649C344.347 367.799 348.319 370.833 353.941 371.675L342.904 375.245Z" fill="#172335"/>
<path d="M220.229 301.206H167.05V291.67H209.302L220.229 296.438V301.206Z" fill="#423B3C"/>
<path d="M121.646 158.623H126.563V172.156H118.276V158.89V158.623V145.026L121.646 158.623Z" fill="#D3D2D1"/>
<path d="M421.244 104.172C420.487 112.727 418.966 115.723 418.966 115.723C418.966 115.723 428.25 119.924 432.436 127.828C432.345 128.478 432.229 129.122 432.087 129.766C432.041 129.982 431.989 130.212 431.931 130.435C431.88 130.652 431.821 130.881 431.763 131.104C431.647 131.55 431.511 132.003 431.368 132.443C431.304 132.653 431.239 132.851 431.161 133.055C431.123 133.176 431.077 133.303 431.038 133.418C430.98 133.571 430.922 133.724 430.87 133.871C430.702 134.298 430.54 134.719 430.359 135.139C430.23 135.445 430.094 135.758 429.952 136.057C429.745 136.503 429.525 136.956 429.298 137.389C429.233 137.511 429.175 137.638 429.104 137.759C428.509 138.881 427.843 139.965 427.131 141.004C427.008 141.195 426.872 141.38 426.736 141.565C426.413 142.011 426.083 142.457 425.74 142.891C425.591 143.075 425.442 143.26 425.287 143.445C422.861 146.397 420.021 148.851 417.09 150.546C416.954 150.623 416.818 150.706 416.683 150.776C415.537 151.407 414.379 151.923 413.228 152.312C412.898 152.427 412.568 152.522 412.245 152.612C412.186 152.624 412.135 152.637 412.083 152.65C411.94 152.688 411.805 152.72 411.669 152.752C411.468 152.796 411.268 152.841 411.074 152.873C410.957 152.898 410.854 152.918 410.744 152.93C410.647 152.949 410.556 152.962 410.472 152.975C410.31 153 410.155 153.02 410 153.039C408.505 153.204 407.056 153.109 405.684 152.733C403.433 145.816 393.302 150.145 393.302 150.145C393.302 150.145 391.594 152.102 387.421 147.614C387.524 147.391 387.628 147.168 387.731 146.951C387.803 146.785 387.887 146.632 387.964 146.473C388.197 145.995 388.43 145.542 388.663 145.103C388.754 144.93 388.844 144.758 388.941 144.593C389.976 142.712 391.005 141.189 391.988 139.882C392.215 139.582 392.441 139.295 392.661 139.021C392.888 138.728 393.114 138.448 393.341 138.18C393.438 138.065 393.541 137.944 393.638 137.829C394.376 136.943 395.074 136.153 395.702 135.388C395.87 135.184 396.032 134.993 396.187 134.795C396.498 134.4 396.795 134.005 397.067 133.603C397.164 133.469 397.248 133.335 397.332 133.201C397.397 133.106 397.455 133.004 397.513 132.908C397.83 132.379 398.115 131.825 398.354 131.232C398.393 131.136 398.432 131.041 398.471 130.939C398.523 130.811 398.568 130.677 398.613 130.543C399.17 129.517 399.286 128.089 399.047 126.349C401.479 123.761 399.085 112.848 403.782 114.231C409.476 115.914 419.93 107.411 420.901 100.609L421.244 104.172Z" fill="#8C382D"/>
<path d="M389.905 142.942C393.683 136.803 397.19 134.833 398.613 130.531C399.17 129.504 399.286 128.076 399.047 126.336C398.956 125.667 398.807 124.959 398.613 124.207C398.594 124.137 398.581 124.067 398.555 123.997C398.173 122.556 397.623 120.969 396.918 119.267C395.566 115.971 393.677 112.255 391.471 108.335C390.649 107.238 389.789 106.238 388.909 105.313C388.792 105.192 388.67 105.065 388.547 104.944C384.438 100.762 379.787 98.225 375.478 96.3382C372.981 95.2418 370.594 94.3749 368.504 93.5271C367.307 93.0426 366.201 92.5709 365.23 92.061C358.476 88.5742 358.412 85.5017 357.486 86.9487C353.288 79.548 360.314 63.3952 360.482 63C360.488 63 360.488 63.0064 360.495 63.0064C360.501 63.0127 360.501 63.0127 360.501 63.0127C360.702 74.015 363.354 80.7464 374.365 86.732C376.086 87.669 377.95 88.6762 379.871 89.7917C381.935 90.9837 384.07 92.2968 386.192 93.7884C394.816 99.8059 403.297 108.583 405.866 123.009C407.903 134.419 399.829 140.468 389.905 142.942Z" fill="#8C382D"/>
<path d="M407.638 162.224C405.963 169.344 398.743 173.775 391.516 172.117C384.29 170.46 382.931 164.908 384.613 157.788C386.289 150.667 395.223 146.033 402.45 147.691C409.676 149.348 409.32 155.104 407.638 162.224Z" fill="#F48967"/>
<path d="M395.275 149.259C397.391 148.258 393.263 161.166 395.275 162.078C399.81 164.13 409.437 157.552 406.635 165.01C406.635 165.01 410.33 159.222 408.622 153.204C405.904 143.611 395.275 149.259 395.275 149.259Z" fill="#F48967"/>
<path d="M374.378 340.804H362.287L361.601 318.799L373.68 328.475L374.378 340.804Z" fill="#C13A30"/>
</g>
<defs>
<clipPath id="clip0">
<rect width="494" height="431" fill="white"/>
</clipPath>
</defs>
</svg>
